<?xml version="1.0" encoding="UTF-8" standalone="no"?>
<svg
   xmlns:dc="http://purl.org/dc/elements/1.1/"
   xmlns:cc="http://creativecommons.org/ns#"
   xmlns:rdf="http://www.w3.org/1999/02/22-rdf-syntax-ns#"
   xmlns:svg="http://www.w3.org/2000/svg"
   xmlns="http://www.w3.org/2000/svg"
   xmlns:sodipodi="http://sodipodi.sourceforge.net/DTD/sodipodi-0.dtd"
   xmlns:inkscape="http://www.inkscape.org/namespaces/inkscape"
   sodipodi:docname="paper2.svg"
   inkscape:version="1.0 (4035a4fb49, 2020-05-01)"
   id="svg1099"
   version="1.1"
   viewBox="0 0 135.46666 135.46667"
   height="512"
   width="512">
  <defs
     id="defs1093" />
  <sodipodi:namedview
     inkscape:window-maximized="1"
     inkscape:window-y="-8"
     inkscape:window-x="-8"
     inkscape:window-height="1017"
     inkscape:window-width="1920"
     inkscape:pagecheckerboard="false"
     showborder="false"
     inkscape:showpageshadow="false"
     units="px"
     showgrid="false"
     inkscape:document-rotation="0"
     inkscape:current-layer="layer1"
     inkscape:document-units="px"
     inkscape:cy="652.98339"
     inkscape:cx="370.68326"
     inkscape:zoom="0.7"
     inkscape:pageshadow="2"
     inkscape:pageopacity="0.0"
     borderopacity="1.0"
     bordercolor="#666666"
     pagecolor="#ffffff"
     id="base" />
  <metadata
     id="metadata1096">
    <rdf:RDF>
      <cc:Work
         rdf:about="">
        <dc:format>image/svg+xml</dc:format>
        <dc:type
           rdf:resource="http://purl.org/dc/dcmitype/StillImage" />
        <dc:title></dc:title>
      </cc:Work>
    </rdf:RDF>
  </metadata>
  <g
     id="layer1"
     inkscape:groupmode="layer"
     inkscape:label="Layer 1">
    <path
       id="rect833"
       style="fill:#fcf8e8;fill-opacity:1;stroke-width:0.0662834"
       d="m -69.849999,62.592846 c -0.293158,0 -0.579169,0.02958 -0.855245,0.08578 -0.276076,0.05621 -0.542412,0.139153 -0.795817,0.245978 -0.253405,0.106826 -0.493675,0.237271 -0.718819,0.389126 -0.225145,0.151852 -0.435024,0.324953 -0.626319,0.516247 -0.191294,0.191293 -0.364392,0.401174 -0.516247,0.626319 -0.151855,0.225141 -0.282298,0.465412 -0.389124,0.718817 -0.106826,0.253405 -0.189772,0.519742 -0.245979,0.795819 -0.05621,0.276074 -0.08578,0.562086 -0.08578,0.855244 v 2.116667 2.117183 67.502341 25.63048 h 59.266665 c 0.293159,0 0.579168,-0.0296 0.855245,-0.0858 0.276077,-0.0562 0.542412,-0.13915 0.795816,-0.24598 0.253405,-0.10683 0.493676,-0.23728 0.71882,-0.38913 0.225142,-0.15186 0.435023,-0.32495 0.626319,-0.51624 0.191291,-0.1913 0.364392,-0.40118 0.516247,-0.62633 0.151853,-0.22514 0.282298,-0.46541 0.389123,-0.71882 0.106826,-0.2534 0.18977,-0.51975 0.245981,-0.79581 0.0562,-0.27608 0.08578,-0.56209 0.08578,-0.85525 V 68.942846 h 4.2333332 4.233333 v -2.116667 c 3e-6,-2.345269 -1.888061,-4.233333 -4.23333,-4.233333 H -37.408569 -65.617183 Z" />
    <path
       id="path1043"
       style="fill:#fcf8e8;fill-opacity:1;stroke-width:0.106324"
       d="m -19.05,157.84284 v 2.11667 c 0,0.29316 0.02957,0.57917 0.08578,0.85525 0.05621,0.27607 0.139153,0.54241 0.245978,0.79581 0.106828,0.25341 0.237271,0.49368 0.389126,0.71882 0.151855,0.22515 0.324953,0.43503 0.516247,0.62633 0.191293,0.19129 0.401174,0.36439 0.626319,0.51624 0.225142,0.15186 0.465412,0.2823 0.718817,0.38913 0.253405,0.10682 0.519742,0.18977 0.795816,0.24598 0.276077,0.0562 0.562089,0.0858 0.855247,0.0858 0.293159,0 0.579168,-0.0296 0.855245,-0.0858 0.276077,-0.0562 0.542412,-0.13916 0.795816,-0.24598 0.253405,-0.10683 0.493676,-0.23727 0.71882,-0.38913 0.225142,-0.15185 0.435026,-0.32495 0.626319,-0.51624 0.191291,-0.1913 0.364392,-0.40118 0.516247,-0.62633 0.151853,-0.22514 0.282298,-0.46541 0.389123,-0.71882 0.106826,-0.2534 0.189772,-0.51974 0.245981,-0.79581 0.05621,-0.27608 0.08578,-0.56209 0.08578,-0.85525 v -2.11667 z" />
    <path
       id="path1041"
       style="fill:#f6eabb;fill-opacity:1;stroke-width:0.106324"
       d="m -82.549999,157.84284 v 2.11667 c 0,0.29316 0.02958,0.57918 0.08578,0.85525 0.0562,0.27607 0.138633,0.54241 0.245463,0.79581 0.10682,0.2534 0.23778,0.49419 0.38964,0.71934 0.151851,0.22514 0.324958,0.4345 0.516248,0.62581 0.1913,0.19128 0.400652,0.36438 0.625801,0.51624 0.225141,0.15185 0.465936,0.28229 0.719336,0.38913 0.253411,0.10682 0.519737,0.18976 0.795817,0.24598 0.27608,0.0562 0.562095,0.0858 0.855245,0.0858 h 63.499999 c -0.293158,0 -0.57917,-0.0296 -0.855247,-0.0858 -0.276074,-0.0562 -0.542411,-0.13916 -0.795816,-0.24598 -0.253405,-0.10683 -0.493675,-0.23727 -0.718817,-0.38913 -0.225145,-0.15185 -0.435026,-0.32495 -0.626319,-0.51624 -0.191294,-0.1913 -0.364392,-0.40118 -0.516247,-0.62633 -0.151855,-0.22514 -0.282298,-0.46541 -0.389126,-0.71882 -0.106825,-0.2534 -0.189772,-0.51974 -0.245978,-0.79581 -0.05621,-0.27608 -0.08578,-0.56209 -0.08578,-0.85525 v -2.11667 h -55.033335 z" />
    <path
       d="m -6.3499948,62.592846 c -2.345261,0 -4.2333412,1.888064 -4.2333412,4.233333 v 2.116667 h 8.4666692 v -2.116667 c 0,-2.345269 -1.888058,-4.233333 -4.233328,-4.233333 z"
       style="fill:#f6eabb;fill-opacity:1;stroke-width:0.160519"
       id="path1024" />
    <rect
       y="117.89076"
       x="-68.262497"
       height="4.2333331"
       width="51.858334"
       id="rect1674"
       style="fill:#3b7203;fill-opacity:1;stroke-width:0.177728" />
    <rect
       style="fill:#c91d1d;fill-opacity:1;stroke-width:0.177728"
       id="rect1674-0"
       width="51.858334"
       height="4.2333331"
       x="-68.262497"
       y="100.03139" />
    <rect
       style="fill:#393835;fill-opacity:1;stroke-width:0.177728"
       id="rect1674-4"
       width="51.858334"
       height="4.2333331"
       x="-68.262497"
       y="82.172012" />
    <rect
       style="fill:#007aa3;fill-opacity:1;stroke-width:0.177728"
       id="rect1674-9"
       width="51.858334"
       height="4.2333331"
       x="-68.262497"
       y="135.75014" />
  </g>
</svg>
