<?xml version="1.0" encoding="UTF-8" standalone="no"?>
<svg
   xmlns:dc="http://purl.org/dc/elements/1.1/"
   xmlns:cc="http://creativecommons.org/ns#"
   xmlns:rdf="http://www.w3.org/1999/02/22-rdf-syntax-ns#"
   xmlns:svg="http://www.w3.org/2000/svg"
   xmlns="http://www.w3.org/2000/svg"
   xmlns:xlink="http://www.w3.org/1999/xlink"
   xmlns:sodipodi="http://sodipodi.sourceforge.net/DTD/sodipodi-0.dtd"
   xmlns:inkscape="http://www.inkscape.org/namespaces/inkscape"
   width="512"
   height="512"
   viewBox="0 0 135.46666 135.46667"
   version="1.1"
   id="svg1099"
   inkscape:version="1.0 (4035a4fb49, 2020-05-01)"
   sodipodi:docname="icon.svg">
  <defs
     id="defs1093">
    <linearGradient
       inkscape:collect="always"
       id="linearGradient885">
      <stop
         style="stop-color:#f6eabb;stop-opacity:1;"
         offset="0"
         id="stop881" />
      <stop
         style="stop-color:#fcf8e8;stop-opacity:1"
         offset="1"
         id="stop883" />
    </linearGradient>
    <linearGradient
       id="linearGradient846-5"
       inkscape:collect="always">
      <stop
         id="stop842"
         offset="0"
         style="stop-color:#f6eabb;stop-opacity:1;" />
      <stop
         id="stop844"
         offset="1"
         style="stop-color:#f6eabb;stop-opacity:0;" />
    </linearGradient>
    <linearGradient
       gradientTransform="matrix(3.7795276,0,0,3.7795276,-293.75212,-71.533641)"
       gradientUnits="userSpaceOnUse"
       y2="82.61351"
       x2="37.939358"
       y1="81.501114"
       x1="37.939358"
       id="linearGradient848"
       xlink:href="#linearGradient885"
       inkscape:collect="always" />
    <filter
       height="1.0002952"
       y="-0.00014759925"
       width="1.0000049"
       x="-2.4396697e-06"
       id="filter854"
       style="color-interpolation-filters:sRGB"
       inkscape:collect="always">
      <feGaussianBlur
         id="feGaussianBlur856"
         stdDeviation="6.8642714e-05"
         inkscape:collect="always" />
    </filter>
    <linearGradient
       gradientTransform="matrix(3.7795276,0,0,3.7795276,-293.75212,-71.533641)"
       gradientUnits="userSpaceOnUse"
       y2="82.07753"
       x2="71.372078"
       y1="82.07753"
       x1="3.8451843"
       id="linearGradient874"
       xlink:href="#linearGradient846-5"
       inkscape:collect="always" />
  </defs>
  <sodipodi:namedview
     id="base"
     pagecolor="#ffffff"
     bordercolor="#666666"
     borderopacity="1.0"
     inkscape:pageopacity="0.0"
     inkscape:pageshadow="2"
     inkscape:zoom="8"
     inkscape:cx="-294.39801"
     inkscape:cy="260.69781"
     inkscape:document-units="px"
     inkscape:current-layer="layer1"
     inkscape:document-rotation="0"
     showgrid="false"
     units="px"
     inkscape:showpageshadow="false"
     showborder="false"
     inkscape:pagecheckerboard="false"
     inkscape:window-width="1920"
     inkscape:window-height="1017"
     inkscape:window-x="-8"
     inkscape:window-y="-8"
     inkscape:window-maximized="1" />
  <metadata
     id="metadata1096">
    <rdf:RDF>
      <cc:Work
         rdf:about="">
        <dc:format>image/svg+xml</dc:format>
        <dc:type
           rdf:resource="http://purl.org/dc/dcmitype/StillImage" />
        <dc:title></dc:title>
      </cc:Work>
    </rdf:RDF>
  </metadata>
  <g
     inkscape:label="Layer 1"
     inkscape:groupmode="layer"
     id="layer1">
    <path
       d="m -69.849999,62.592846 c -0.293158,0 -0.579169,0.02958 -0.855245,0.08578 -0.276076,0.05621 -0.542412,0.139153 -0.795817,0.245978 -0.253405,0.106826 -0.493675,0.237271 -0.718819,0.389126 -0.225145,0.151852 -0.435024,0.324953 -0.626319,0.516247 -0.191294,0.191293 -0.364392,0.401174 -0.516247,0.626319 -0.151855,0.225141 -0.282298,0.465412 -0.389124,0.718817 -0.106826,0.253405 -0.189772,0.519742 -0.245979,0.795819 -0.05621,0.276074 -0.08578,0.562086 -0.08578,0.855244 v 2.116667 2.117183 67.502341 25.63048 h 59.266665 c 0.293159,0 0.579168,-0.0296 0.855245,-0.0858 0.276077,-0.0562 0.542412,-0.13915 0.795816,-0.24598 0.253405,-0.10683 0.493676,-0.23728 0.71882,-0.38913 0.225142,-0.15186 0.435023,-0.32495 0.626319,-0.51624 0.191291,-0.1913 0.364392,-0.40118 0.516247,-0.62633 0.151853,-0.22514 0.282298,-0.46541 0.389123,-0.71882 0.106826,-0.2534 0.18977,-0.51975 0.245981,-0.79581 0.0562,-0.27608 0.08578,-0.56209 0.08578,-0.85525 V 68.942846 h 4.2333332 4.233333 v -2.116667 c 3e-6,-2.345269 -1.888061,-4.233333 -4.23333,-4.233333 H -37.408569 -65.617183 Z"
       style="fill:#fcf8e8;fill-opacity:1;stroke-width:0.0662834"
       id="rect833" />
    <path
       d="m -19.05,157.84284 v 2.11667 c 0,0.29316 0.02957,0.57917 0.08578,0.85525 0.05621,0.27607 0.139153,0.54241 0.245978,0.79581 0.106828,0.25341 0.237271,0.49368 0.389126,0.71882 0.151855,0.22515 0.324953,0.43503 0.516247,0.62633 0.191293,0.19129 0.401174,0.36439 0.626319,0.51624 0.225142,0.15186 0.465412,0.2823 0.718817,0.38913 0.253405,0.10682 0.519742,0.18977 0.795816,0.24598 0.276077,0.0562 0.562089,0.0858 0.855247,0.0858 0.293159,0 0.579168,-0.0296 0.855245,-0.0858 0.276077,-0.0562 0.542412,-0.13916 0.795816,-0.24598 0.253405,-0.10683 0.493676,-0.23727 0.71882,-0.38913 0.225142,-0.15185 0.435026,-0.32495 0.626319,-0.51624 0.191291,-0.1913 0.364392,-0.40118 0.516247,-0.62633 0.151853,-0.22514 0.282298,-0.46541 0.389123,-0.71882 0.106826,-0.2534 0.189772,-0.51974 0.245981,-0.79581 0.05621,-0.27608 0.08578,-0.56209 0.08578,-0.85525 v -2.11667 z"
       style="fill:#fcf8e8;fill-opacity:1;stroke-width:0.106324"
       id="path1043" />
    <path
       d="m -82.549999,157.84284 v 2.11667 c 0,0.29316 0.02958,0.57918 0.08578,0.85525 0.0562,0.27607 0.138633,0.54241 0.245463,0.79581 0.10682,0.2534 0.23778,0.49419 0.38964,0.71934 0.151851,0.22514 0.324958,0.4345 0.516248,0.62581 0.1913,0.19128 0.400652,0.36438 0.625801,0.51624 0.225141,0.15185 0.465936,0.28229 0.719336,0.38913 0.253411,0.10682 0.519737,0.18976 0.795817,0.24598 0.27608,0.0562 0.562095,0.0858 0.855245,0.0858 h 63.499999 c -0.293158,0 -0.57917,-0.0296 -0.855247,-0.0858 -0.276074,-0.0562 -0.542411,-0.13916 -0.795816,-0.24598 -0.253405,-0.10683 -0.493675,-0.23727 -0.718817,-0.38913 -0.225145,-0.15185 -0.435026,-0.32495 -0.626319,-0.51624 -0.191294,-0.1913 -0.364392,-0.40118 -0.516247,-0.62633 -0.151855,-0.22514 -0.282298,-0.46541 -0.389126,-0.71882 -0.106825,-0.2534 -0.189772,-0.51974 -0.245978,-0.79581 -0.05621,-0.27608 -0.08578,-0.56209 -0.08578,-0.85525 v -2.11667 h -55.033335 z"
       style="fill:#f6eabb;fill-opacity:1;stroke-width:0.106324"
       id="path1041" />
    <rect
       style="fill:#3b7203;fill-opacity:1;stroke-width:0.177728"
       id="rect1674"
       width="51.858334"
       height="4.2333331"
       x="-68.262497"
       y="117.89076" />
    <rect
       y="100.03139"
       x="-68.262497"
       height="4.2333331"
       width="51.858334"
       id="rect1674-0"
       style="fill:#c91d1d;fill-opacity:1;stroke-width:0.177728" />
    <rect
       y="82.172012"
       x="-68.262497"
       height="4.2333331"
       width="51.858334"
       id="rect1674-4"
       style="fill:#393835;fill-opacity:1;stroke-width:0.177728" />
    <rect
       y="135.75014"
       x="-68.262497"
       height="4.2333331"
       width="51.858334"
       id="rect1674-9"
       style="fill:#007aa3;fill-opacity:1;stroke-width:0.177728" />
    <path
       transform="scale(0.26458333)"
       d="M -264 236.57227 C -265.10801 236.57227 -266.18897 236.68407 -267.23242 236.89648 C -268.27587 237.10893 -269.28246 237.42242 -270.24023 237.82617 C -271.19797 238.22992 -272.10607 238.72292 -272.95703 239.29688 C -273.61898 239.74334 -274.23407 240.25082 -274.82031 240.78906 L -24 240.78906 L -24 236.57227 L -264 236.57227 z "
       style="fill:url(#linearGradient848);fill-opacity:1;stroke:url(#linearGradient874);stroke-width:0.781489;stroke-opacity:0;filter:url(#filter854)"
       id="rect840" />
    <path
       id="path1024"
       style="fill:#f6eabb;fill-opacity:1;stroke-width:0.160519"
       d="m -6.3499948,62.592846 c -2.345261,0 -4.2333412,1.888064 -4.2333412,4.233333 v 2.116667 h 8.4666692 v -2.116667 c 0,-2.345269 -1.888058,-4.233333 -4.233328,-4.233333 z" />
  </g>
</svg>
